<?xml version="1.0" encoding="UTF-8"?>
<svg version="1.1" xmlns="http://www.w3.org/2000/svg" width="521" height="406">
<path d="M0 0 C171.93 0 343.86 0 521 0 C521 133.98 521 267.96 521 406 C349.07 406 177.14 406 0 406 C0 272.02 0 138.04 0 0 Z " fill="#A349A4" transform="translate(0,0)"/>
<path d="M0 0 C2.27864583 0.06510417 4.55729167 0.13020833 6.8359375 0.1953125 C6.8359375 3.4953125 6.8359375 6.7953125 6.8359375 10.1953125 C5.1859375 10.1953125 3.5359375 10.1953125 1.8359375 10.1953125 C1.8359375 10.8553125 1.8359375 11.5153125 1.8359375 12.1953125 C1.1759375 12.5253125 0.5159375 12.8553125 -0.1640625 13.1953125 C-1.29756784 15.21201077 -1.29756784 15.21201077 -2.1640625 17.1953125 C-2.8240625 17.1953125 -3.4840625 17.1953125 -4.1640625 17.1953125 C-4.5971875 18.773125 -4.5971875 18.773125 -5.0390625 20.3828125 C-6.1640625 24.1953125 -6.1640625 24.1953125 -7.21557617 26.47167969 C-9.06684157 31.7876943 -8.49607416 37.59696754 -8.47973633 43.17724609 C-8.47659141 45.42465413 -8.500005 47.6707246 -8.52539062 49.91796875 C-8.55443239 56.69138435 -8.56805891 63.02169739 -5.87646484 69.36987305 C-4.63461961 72.55194187 -4.47166884 75.81164276 -4.1640625 79.1953125 C-3.5040625 79.1953125 -2.8440625 79.1953125 -2.1640625 79.1953125 C-1.9578125 78.2671875 -1.7515625 77.3390625 -1.5390625 76.3828125 C-0.1640625 73.1953125 -0.1640625 73.1953125 2.3984375 71.3203125 C6.67082495 69.92207661 10.38614751 69.9283251 14.8359375 70.1953125 C15.3359375 73.3203125 15.3359375 73.3203125 14.8359375 77.1953125 C12.99798456 78.89463639 11.01578685 80.15812349 8.9296875 81.5390625 C5.36448608 84.35929646 3.82027882 88.19241707 1.8359375 92.1953125 C-0.83880027 96.92683138 -3.90492872 101.34776257 -7.1640625 105.6953125 C-7.8034375 106.55125 -8.4428125 107.4071875 -9.1015625 108.2890625 C-11.1640625 110.1953125 -11.1640625 110.1953125 -13.9140625 110.4765625 C-14.6565625 110.38375 -15.3990625 110.2909375 -16.1640625 110.1953125 C-16.15246094 110.96617187 -16.14085937 111.73703125 -16.12890625 112.53125 C-16.11537109 114.03558594 -16.11537109 114.03558594 -16.1015625 115.5703125 C-16.08996094 116.56804687 -16.07835937 117.56578125 -16.06640625 118.59375 C-16.1640625 121.1953125 -16.1640625 121.1953125 -17.1640625 123.1953125 C-20.83066065 123.25395642 -24.49713614 123.28912358 -28.1640625 123.3203125 C-29.19402344 123.33707031 -30.22398437 123.35382813 -31.28515625 123.37109375 C-37.28861405 123.40933233 -42.4156132 122.95024774 -48.1640625 121.1953125 C-48.4940625 124.4953125 -48.8240625 127.7953125 -49.1640625 131.1953125 C-58.39775149 131.81089177 -64.74720758 129.86122678 -73.1640625 126.1953125 C-74.82829456 125.52259125 -76.49479646 124.85544364 -78.1640625 124.1953125 C-78.95296875 123.87820312 -79.741875 123.56109375 -80.5546875 123.234375 C-87.70093652 120.38871296 -94.85001213 117.58223313 -102.1640625 115.1953125 C-102.14085937 116.33226562 -102.11765625 117.46921875 -102.09375 118.640625 C-101.9580973 128.31613268 -102.149262 137.68015978 -104.1640625 147.1953125 C-104.4940625 147.5253125 -104.8240625 147.8553125 -105.1640625 148.1953125 C-107.1440625 148.1953125 -109.1240625 148.1953125 -111.1640625 148.1953125 C-111.1640625 152.4853125 -111.1640625 156.7753125 -111.1640625 161.1953125 C-119.33315432 161.68301947 -119.33315432 161.68301947 -123.0390625 159.5078125 C-125.18001028 157.17795756 -126.59781425 154.93624694 -128.1640625 152.1953125 C-128.9271875 151.3290625 -129.6903125 150.4628125 -130.4765625 149.5703125 C-133.57390206 145.97552144 -135.63813162 141.86879014 -137.83203125 137.68359375 C-139.1867412 135.05691666 -139.1867412 135.05691666 -141.1640625 132.1953125 C-141.42166529 129.50078729 -141.25306303 126.90982875 -141.1640625 124.1953125 C-144.28191363 124.84175911 -144.28191363 124.84175911 -145.1640625 127.1953125 C-145.8240625 127.1953125 -146.4840625 127.1953125 -147.1640625 127.1953125 C-147.4940625 129.1753125 -147.8240625 131.1553125 -148.1640625 133.1953125 C-149.1540625 133.1953125 -150.1440625 133.1953125 -151.1640625 133.1953125 C-153.34775563 139.86219378 -152.3243649 148.50341094 -149.6015625 154.8203125 C-147.45303531 159.86468069 -147.92426276 164.78649616 -148.1640625 170.1953125 C-150.4740625 170.1953125 -152.7840625 170.1953125 -155.1640625 170.1953125 C-156.4840625 166.8953125 -157.8040625 163.5953125 -159.1640625 160.1953125 C-159.4940625 161.1853125 -159.8240625 162.1753125 -160.1640625 163.1953125 C-160.9684375 163.5046875 -161.7728125 163.8140625 -162.6015625 164.1328125 C-165.28003978 164.91560258 -165.28003978 164.91560258 -166.1015625 167.0703125 C-167.66466636 170.19652022 -170.2689054 171.34733988 -173.1640625 173.1953125 C-173.4940625 173.8553125 -173.8240625 174.5153125 -174.1640625 175.1953125 C-174.8240625 175.1953125 -175.4840625 175.1953125 -176.1640625 175.1953125 C-176.4940625 176.1853125 -176.8240625 177.1753125 -177.1640625 178.1953125 C-179.1440625 178.1953125 -181.1240625 178.1953125 -183.1640625 178.1953125 C-183.37852571 172.83373234 -183.47561673 168.1651541 -181.1640625 163.1953125 C-179.85139732 161.84162654 -178.51838925 160.50731654 -177.1640625 159.1953125 C-176.5040625 157.5453125 -175.8440625 155.8953125 -175.1640625 154.1953125 C-179.4540625 154.1953125 -183.7440625 154.1953125 -188.1640625 154.1953125 C-188.11894531 155.63648438 -188.07382813 157.07765625 -188.02734375 158.5625 C-188.03337248 166.09358664 -189.00318935 173.46335329 -190.02563477 180.91162109 C-190.35159477 183.32055101 -190.64967361 185.73195403 -190.94726562 188.14453125 C-192.02200972 196.32778156 -193.10608125 203.38100156 -198.1640625 210.1953125 C-200.95579305 210.22221354 -203.74726598 210.24210303 -206.5390625 210.2578125 C-207.333125 210.26619141 -208.1271875 210.27457031 -208.9453125 210.28320312 C-214.9375 210.30859375 -214.9375 210.30859375 -217.1640625 209.1953125 C-217.22464844 209.90558594 -217.28523438 210.61585938 -217.34765625 211.34765625 C-217.47333984 212.72630859 -217.47333984 212.72630859 -217.6015625 214.1328125 C-217.68277344 215.04933594 -217.76398438 215.96585938 -217.84765625 216.91015625 C-218.1640625 219.1953125 -218.1640625 219.1953125 -219.1640625 220.1953125 C-222.07283558 220.34981322 -224.94146309 220.42708165 -227.8515625 220.4453125 C-229.0571582 220.47625 -229.0571582 220.47625 -230.28710938 220.5078125 C-235.35962047 220.54099328 -238.72269634 219.92183777 -243.1640625 217.1953125 C-243.1640625 216.5353125 -243.1640625 215.8753125 -243.1640625 215.1953125 C-243.8240625 215.1953125 -244.4840625 215.1953125 -245.1640625 215.1953125 C-246.7890625 213.1953125 -246.7890625 213.1953125 -248.1640625 211.1953125 C-248.34582031 212.20851563 -248.34582031 212.20851563 -248.53125 213.2421875 C-248.69882813 214.13421875 -248.86640625 215.02625 -249.0390625 215.9453125 C-249.20148438 216.82703125 -249.36390625 217.70875 -249.53125 218.6171875 C-250.14314639 221.11009873 -250.81070505 223.01941978 -252.1640625 225.1953125 C-255.75427565 227.34944039 -259.02737732 228.58697644 -263.1640625 229.1953125 C-262.62383947 230.42511433 -262.08173088 231.65408775 -261.5390625 232.8828125 C-261.18070312 233.70007813 -260.82234375 234.51734375 -260.453125 235.359375 C-259.52865211 237.39321535 -258.55966911 239.40704755 -257.5625 241.40625 C-254.49644859 247.64007016 -252.34263977 252.21321927 -253.1640625 259.1953125 C-260.20683641 259.9115268 -260.20683641 259.9115268 -262.80859375 257.96484375 C-265.08697955 255.30563265 -266.1640625 253.74214053 -266.1640625 250.1953125 C-267.4840625 249.8653125 -268.8040625 249.5353125 -270.1640625 249.1953125 C-270.4940625 247.8753125 -270.8240625 246.5553125 -271.1640625 245.1953125 C-271.8240625 245.1953125 -272.4840625 245.1953125 -273.1640625 245.1953125 C-274.00918074 243.47187495 -274.83969604 241.74127197 -275.6640625 240.0078125 C-276.128125 239.04488281 -276.5921875 238.08195313 -277.0703125 237.08984375 C-278.15999171 234.20608557 -278.38683774 232.24176389 -278.1640625 229.1953125 C-279.1540625 229.1953125 -280.1440625 229.1953125 -281.1640625 229.1953125 C-281.9375 227.679375 -281.9375 227.679375 -282.7265625 226.1328125 C-284.42327998 223.11167886 -286.32562162 220.93513369 -288.8515625 218.5703125 C-291.64026765 215.93057665 -293.04268721 214.20069721 -293.1640625 210.1953125 C-294.1540625 209.8653125 -295.1440625 209.5353125 -296.1640625 209.1953125 C-297.42766139 206.95542955 -298.53730058 204.77677763 -299.6015625 202.4453125 C-301.18227171 199.02103458 -302.68417581 195.78805598 -305.07421875 192.8359375 C-308.60495758 188.3746675 -310.89499748 183.20652299 -313.453125 178.14453125 C-315.69423094 173.77918687 -317.90950138 169.91087911 -321.1640625 166.1953125 C-324.70803289 161.81805729 -326.87508224 157.85826747 -328.390625 152.40625 C-329.10701935 150.09983865 -329.10701935 150.09983865 -330.59838867 147.89208984 C-333.22364114 143.37025314 -334.41357139 138.44675965 -335.8515625 133.4453125 C-336.17189453 132.41792969 -336.49222656 131.39054688 -336.82226562 130.33203125 C-339.4528306 121.18955598 -339.5011505 112.61116249 -339.1640625 103.1953125 C-334.31178215 103.14509385 -329.45965989 103.10921493 -324.60717773 103.08544922 C-322.96359617 103.07552015 -321.32003164 103.06197239 -319.67651367 103.04443359 C-289.76416738 102.73370345 -289.76416738 102.73370345 -280.1640625 109.1953125 C-278.3515625 111.5703125 -278.3515625 111.5703125 -277.1640625 114.1953125 C-276.6278125 115.1234375 -276.0915625 116.0515625 -275.5390625 117.0078125 C-272.12025626 124.93322696 -272.98084237 134.16295103 -272.9765625 142.6328125 C-272.96431641 143.90447266 -272.95207031 145.17613281 -272.93945312 146.48632812 C-272.92646353 154.83863568 -273.94754756 161.78544585 -276.1640625 169.8203125 C-278.80960408 180.66269604 -280.31021043 189.05218036 -275.1640625 199.1953125 C-274.49739583 201.52864583 -273.83072917 203.86197917 -273.1640625 206.1953125 C-270.67835932 212.94951961 -270.67835932 212.94951961 -267.1640625 219.1953125 C-264.09849652 219.92874678 -264.09849652 219.92874678 -261.1640625 220.1953125 C-261.1640625 219.5353125 -261.1640625 218.8753125 -261.1640625 218.1953125 C-260.5040625 218.1953125 -259.8440625 218.1953125 -259.1640625 218.1953125 C-255.91021502 207.21357726 -256.52938247 195.19427137 -257.94140625 183.91796875 C-258.47676927 177.37151215 -258.23258838 170.75856866 -258.1640625 164.1953125 C-255.5240625 164.1953125 -252.8840625 164.1953125 -250.1640625 164.1953125 C-249.20889163 167.0608251 -249.02818769 168.93514756 -248.98828125 171.9140625 C-248.95080332 189.98316925 -248.95080332 189.98316925 -240.1640625 205.1953125 C-239.5040625 205.5253125 -238.8440625 205.8553125 -238.1640625 206.1953125 C-238.1640625 206.8553125 -238.1640625 207.5153125 -238.1640625 208.1953125 C-231.7691009 210.30425068 -231.7691009 210.30425068 -225.1640625 211.1953125 C-225.1228125 209.9784375 -225.0815625 208.7615625 -225.0390625 207.5078125 C-225.01585937 206.82332031 -224.99265625 206.13882813 -224.96875 205.43359375 C-225.05656827 203.12828584 -225.05656827 203.12828584 -226.1171875 200.8984375 C-227.42597237 197.51903775 -227.70431002 194.20735331 -228.0390625 190.6328125 C-229.03861044 179.05663788 -229.03861044 179.05663788 -234.1640625 169.1953125 C-234.23611761 167.50922284 -234.24792318 165.82030591 -234.2265625 164.1328125 C-234.21753906 163.21371094 -234.20851563 162.29460937 -234.19921875 161.34765625 C-234.18761719 160.63738281 -234.17601562 159.92710937 -234.1640625 159.1953125 C-231.8540625 159.1953125 -229.5440625 159.1953125 -227.1640625 159.1953125 C-227.1640625 159.8553125 -227.1640625 160.5153125 -227.1640625 161.1953125 C-226.5453125 161.3809375 -225.9265625 161.5665625 -225.2890625 161.7578125 C-222.19506668 163.85080967 -221.94607482 166.7206707 -221.1640625 170.1953125 C-220.49044191 173.77233914 -219.93436581 177.36712884 -219.39648438 180.96679688 C-218.65031003 185.54690573 -217.39277517 189.06691716 -215.1640625 193.1953125 C-215.1640625 193.8553125 -215.1640625 194.5153125 -215.1640625 195.1953125 C-214.5040625 195.1953125 -213.8440625 195.1953125 -213.1640625 195.1953125 C-212.8546875 196.401875 -212.8546875 196.401875 -212.5390625 197.6328125 C-212.0853125 198.4784375 -211.6315625 199.3240625 -211.1640625 200.1953125 C-208.11133785 201.09362089 -208.11133785 201.09362089 -205.1640625 201.1953125 C-201.10364578 196.1088765 -200.31866736 191.81522755 -199.6796875 185.421875 C-199.57436707 184.4981308 -199.46904663 183.5743866 -199.36053467 182.62265015 C-199.02971008 179.69000284 -198.72158431 176.75548549 -198.4140625 173.8203125 C-198.19290342 171.82405231 -197.97026299 169.82795565 -197.74609375 167.83203125 C-197.20158209 162.95485121 -196.67740487 158.07586758 -196.1640625 153.1953125 C-196.76661865 153.00267822 -197.3691748 152.81004395 -197.98999023 152.61157227 C-198.78864502 152.35174561 -199.5872998 152.09191895 -200.41015625 151.82421875 C-201.1983374 151.56970947 -201.98651855 151.3152002 -202.79858398 151.05297852 C-206.99805388 149.53035103 -210.03274145 148.25999908 -212.1640625 144.1953125 C-212.73975316 141.17123887 -212.87215483 138.20675514 -212.9140625 135.1328125 C-212.92961182 134.34060303 -212.94516113 133.54839355 -212.96118164 132.73217773 C-212.85114933 128.66012605 -212.44960479 126.61654187 -210.1171875 123.17578125 C-206.42663839 120.70077014 -203.4669016 120.45123024 -199.1640625 120.5703125 C-198.46539062 120.55097656 -197.76671875 120.53164062 -197.046875 120.51171875 C-193.41140472 120.54601564 -191.25477949 121.13764836 -188.18359375 123.08984375 C-185.27461809 127.56302682 -185.612211 131.29731455 -185.8515625 136.5078125 C-185.88540039 137.90483398 -185.88540039 137.90483398 -185.91992188 139.33007812 C-185.97861689 141.61918377 -186.06829185 143.90745811 -186.1640625 146.1953125 C-182.2040625 146.5253125 -178.2440625 146.8553125 -174.1640625 147.1953125 C-174.4940625 141.9153125 -174.8240625 136.6353125 -175.1640625 131.1953125 C-175.8240625 131.1953125 -176.4840625 131.1953125 -177.1640625 131.1953125 C-180.90646814 123.17587185 -181.4072859 114.50362042 -181.72265625 105.78515625 C-182.0836928 102.84893868 -182.58148441 100.79078474 -183.5625 98.0625 C-185.59954442 92.29544972 -186.45175879 86.41534865 -187.3515625 80.3828125 C-187.52880859 79.28388672 -187.70605469 78.18496094 -187.88867188 77.05273438 C-189.00873621 69.71393444 -189.38278884 62.61440937 -189.1640625 55.1953125 C-186.8540625 55.1953125 -184.5440625 55.1953125 -182.1640625 55.1953125 C-182.04289063 56.01773438 -181.92171875 56.84015625 -181.796875 57.6875 C-180.89334439 63.70640389 -179.9099471 69.67496321 -178.6484375 75.62890625 C-178.30587753 77.44392155 -178.03106118 79.27233405 -177.8046875 81.10546875 C-176.9773108 87.78239874 -175.45850006 93.87126287 -173.2265625 100.1953125 C-172.97358398 100.91340088 -172.72060547 101.63148926 -172.45996094 102.37133789 C-171.03146107 106.26578795 -169.36871794 109.66417913 -167.1640625 113.1953125 C-166.62439752 114.49200752 -166.12041345 115.80450528 -165.6640625 117.1328125 C-164.73845569 119.73332686 -163.76026465 121.97299724 -162.4765625 124.4453125 C-161.1640625 127.1953125 -161.1640625 127.1953125 -161.1640625 131.1953125 C-160.5040625 131.1953125 -159.8440625 131.1953125 -159.1640625 131.1953125 C-158.8340625 129.8753125 -158.5040625 128.5553125 -158.1640625 127.1953125 C-157.5040625 127.1953125 -156.8440625 127.1953125 -156.1640625 127.1953125 C-156.0815625 126.4115625 -155.9990625 125.6278125 -155.9140625 124.8203125 C-155.1640625 122.1953125 -155.1640625 122.1953125 -153.1640625 121.0703125 C-152.5040625 120.7815625 -151.8440625 120.4928125 -151.1640625 120.1953125 C-150.8340625 119.2053125 -150.5040625 118.2153125 -150.1640625 117.1953125 C-149.5040625 117.1953125 -148.8440625 117.1953125 -148.1640625 117.1953125 C-148.1640625 115.8753125 -148.1640625 114.5553125 -148.1640625 113.1953125 C-146.39457155 113.08716025 -144.62318763 113.00965167 -142.8515625 112.9453125 C-141.86542969 112.89890625 -140.87929688 112.8525 -139.86328125 112.8046875 C-137.1640625 113.1953125 -137.1640625 113.1953125 -135.3828125 114.8671875 C-134.00300072 117.50298179 -133.49964684 119.76918655 -132.9765625 122.6953125 C-130.75964069 132.29024391 -124.61141027 139.94204626 -118.1640625 147.1953125 C-118.27861931 145.27799332 -118.40612508 143.361445 -118.5390625 141.4453125 C-118.64347656 139.84429687 -118.64347656 139.84429687 -118.75 138.2109375 C-118.9850132 135.29354879 -118.9850132 135.29354879 -120.12963867 133.27392578 C-121.20183628 131.11940833 -121.68176187 129.28001997 -122.12890625 126.921875 C-122.36697998 125.69525146 -122.36697998 125.69525146 -122.60986328 124.44384766 C-122.85325439 123.14519775 -122.85325439 123.14519775 -123.1015625 121.8203125 C-123.45091905 120.00763806 -123.80118329 118.19513834 -124.15234375 116.3828125 C-124.32330566 115.4959375 -124.49426758 114.6090625 -124.67041016 113.6953125 C-125.32299544 110.39042956 -126.05314997 107.10763753 -126.7890625 103.8203125 C-127.78119538 99.27036976 -128.5446225 94.74814826 -129.1640625 90.1328125 C-129.92112538 84.49900288 -131.02537462 79.04171758 -132.3828125 73.5234375 C-133.8331898 67.3448302 -134.99938329 61.10897857 -136.1640625 54.87109375 C-136.3290625 53.98744141 -136.4940625 53.10378906 -136.6640625 52.19335938 C-136.99950479 50.39166741 -137.33281221 48.58957677 -137.6640625 46.78710938 C-138.38733417 42.93060224 -139.15730101 39.21796113 -140.28125 35.453125 C-141.19932979 32.06516683 -141.3676789 29.25624211 -141.2890625 25.7578125 C-141.27101563 24.70722656 -141.25296875 23.65664062 -141.234375 22.57421875 C-141.21117187 21.78917969 -141.18796875 21.00414063 -141.1640625 20.1953125 C-138.5240625 20.1953125 -135.8840625 20.1953125 -133.1640625 20.1953125 C-133.02830811 20.96609131 -132.89255371 21.73687012 -132.75268555 22.53100586 C-132.12595378 26.06621862 -131.48883946 29.59948609 -130.8515625 33.1328125 C-130.63822266 34.34517578 -130.42488281 35.55753906 -130.20507812 36.80664062 C-129.11255443 42.82367413 -127.86324275 48.53686161 -125.7956543 54.29272461 C-124.89834274 56.99575861 -124.55242735 59.68487089 -124.2265625 62.5078125 C-123.21818108 69.72748452 -121.39150108 76.80453429 -118.078125 83.3359375 C-115.43271163 88.71720573 -116.0443946 95.33158533 -116.1640625 101.1953125 C-114.5140625 101.1953125 -112.8640625 101.1953125 -111.1640625 101.1953125 C-111.0196875 100.1021875 -110.8753125 99.0090625 -110.7265625 97.8828125 C-110.1640625 94.1953125 -110.1640625 94.1953125 -109.1640625 91.1953125 C-108.5040625 91.1953125 -107.8440625 91.1953125 -107.1640625 91.1953125 C-107.009375 89.8340625 -107.009375 89.8340625 -106.8515625 88.4453125 C-106.1640625 85.1953125 -106.1640625 85.1953125 -104.7265625 83.3203125 C-102.90717495 80.84594543 -102.47929722 78.56104169 -101.828125 75.59765625 C-101.02329293 72.68605789 -99.87035313 70.02663748 -98.6640625 67.2578125 C-96.50750025 62.25128009 -95.1457489 57.54996559 -94.1640625 52.1953125 C-91.5240625 52.1953125 -88.8840625 52.1953125 -86.1640625 52.1953125 C-85.47041781 59.6969514 -86.04359692 65.80537081 -88.9765625 72.7578125 C-91.98577543 79.89125135 -93.29685997 86.78617921 -94.22583008 94.45727539 C-94.74095794 98.67591484 -95.29800948 102.31297338 -97.1640625 106.1953125 C-86.3761532 110.3384503 -75.59197504 114.4678698 -64.68359375 118.28515625 C-62.1640625 119.1953125 -62.1640625 119.1953125 -60.1640625 120.1953125 C-60.32672104 119.62987732 -60.48937958 119.06444214 -60.65696716 118.48187256 C-61.1830747 116.10958395 -61.28440623 114.03768041 -61.27758789 111.61035156 C-61.27751236 110.70971985 -61.27743683 109.80908813 -61.27735901 108.88116455 C-61.27219772 107.91748962 -61.26703644 106.9538147 -61.26171875 105.9609375 C-61.25959633 104.47119415 -61.25959633 104.47119415 -61.25743103 102.95135498 C-61.25183838 99.78264338 -61.2392872 96.61400271 -61.2265625 93.4453125 C-61.22154655 91.29557394 -61.21698381 89.14583427 -61.21289062 86.99609375 C-61.20187136 81.72914251 -61.1851405 76.46223257 -61.1640625 71.1953125 C-61.8240625 71.1953125 -62.4840625 71.1953125 -63.1640625 71.1953125 C-64.44724142 67.34577574 -64.23049887 64.24793115 -64.1640625 60.1953125 C-62.68499358 60.16842034 -61.20578767 60.14896629 -59.7265625 60.1328125 C-58.90285156 60.12121094 -58.07914062 60.10960937 -57.23046875 60.09765625 C-55.1640625 60.1953125 -55.1640625 60.1953125 -54.1640625 61.1953125 C-54.0196875 62.3090625 -53.8753125 63.4228125 -53.7265625 64.5703125 C-53.41106033 68.28041797 -53.41106033 68.28041797 -51.1640625 71.1953125 C-50.62490104 73.8555148 -50.43036152 76.48793913 -50.1640625 79.1953125 C-49.5040625 79.1953125 -48.8440625 79.1953125 -48.1640625 79.1953125 C-48.1640625 79.8553125 -48.1640625 80.5153125 -48.1640625 81.1953125 C-47.5040625 81.1953125 -46.8440625 81.1953125 -46.1640625 81.1953125 C-44.6484375 82.8046875 -44.6484375 82.8046875 -42.9140625 84.9453125 C-39.96842132 88.4309879 -37.02688925 90.73715002 -33.1640625 93.1953125 C-30.1640625 96.5953125 -30.1640625 96.5953125 -30.1640625 99.1953125 C-29.2153125 99.4634375 -28.2665625 99.7315625 -27.2890625 100.0078125 C-24.1640625 101.1953125 -24.1640625 101.1953125 -22.1640625 104.1953125 C-21.8340625 103.2053125 -21.5040625 102.2153125 -21.1640625 101.1953125 C-20.5040625 101.1953125 -19.8440625 101.1953125 -19.1640625 101.1953125 C-18.8753125 100.2878125 -18.5865625 99.3803125 -18.2890625 98.4453125 C-17.1640625 95.1953125 -17.1640625 95.1953125 -15.9140625 93.1328125 C-14.91902047 91.14362673 -14.91902047 91.14362673 -15.8515625 88.8203125 C-16.2846875 87.9540625 -16.7178125 87.0878125 -17.1640625 86.1953125 C-17.5971875 85.2465625 -18.0303125 84.2978125 -18.4765625 83.3203125 C-19.82167737 80.82935903 -21.1867256 78.71212433 -22.8515625 76.4453125 C-25.1640625 73.1953125 -25.1640625 73.1953125 -25.1640625 71.1953125 C-26.30875 71.1025 -26.30875 71.1025 -27.4765625 71.0078125 C-30.1640625 70.1953125 -30.1640625 70.1953125 -31.8515625 67.6953125 C-32.2846875 66.8703125 -32.7178125 66.0453125 -33.1640625 65.1953125 C-33.8240625 64.8653125 -34.4840625 64.5353125 -35.1640625 64.1953125 C-35.1640625 63.5353125 -35.1640625 62.8753125 -35.1640625 62.1953125 C-35.8240625 62.1953125 -36.4840625 62.1953125 -37.1640625 62.1953125 C-39.93399071 59.83272667 -41.08371382 58.06210429 -41.421875 54.4140625 C-41.41478759 51.66414875 -41.33707584 48.93949627 -41.1640625 46.1953125 C-38.8540625 46.1953125 -36.5440625 46.1953125 -34.1640625 46.1953125 C-34.07125 47.030625 -34.07125 47.030625 -33.9765625 47.8828125 C-32.83787219 51.1237003 -30.59515798 52.8265528 -28.1640625 55.1953125 C-28.1640625 55.8553125 -28.1640625 56.5153125 -28.1640625 57.1953125 C-27.32875 57.535625 -27.32875 57.535625 -26.4765625 57.8828125 C-22.0844831 60.37561432 -19.26510305 63.66554617 -17.1640625 68.1953125 C-17.18500977 66.95555664 -17.20595703 65.71580078 -17.22753906 64.43847656 C-17.30058746 59.78674115 -17.34609546 55.13505517 -17.38378906 50.48291016 C-17.4037581 48.47924236 -17.43094313 46.47563172 -17.46582031 44.47216797 C-17.87633755 20.26372507 -17.87633755 20.26372507 -11.1640625 10.1953125 C-10.5040625 10.1953125 -9.8440625 10.1953125 -9.1640625 10.1953125 C-9.1640625 9.2053125 -9.1640625 8.2153125 -9.1640625 7.1953125 C-6.7890625 4.6328125 -6.7890625 4.6328125 -4.1640625 2.1953125 C-2.1640625 0.1953125 -2.1640625 0.1953125 0 0 Z " fill="#FEFEFE" transform="translate(425.1640625,101.8046875)"/>
<path d="M0 0 C3.98355132 -0.02493556 7.96707167 -0.04297028 11.95068359 -0.05493164 C13.96323241 -0.06236421 15.97575949 -0.07507829 17.98828125 -0.08789062 C39.63208553 -0.14227204 39.63208553 -0.14227204 46.765625 6.69140625 C54.33203377 15.78211582 53.72903331 27.7662594 53 39 C52.30487216 43.11839442 51.27322049 47.02548738 50 51 C49.57074219 52.35544922 49.57074219 52.35544922 49.1328125 53.73828125 C48.44825801 55.83432189 47.7284209 57.91879742 47 60 C44.11071931 57.2948009 42.77096362 54.54192723 41 51 C40.360625 50.21625 39.72125 49.4325 39.0625 48.625 C36.33133628 45.14897345 33 40.56920646 33 36 C30.69 36 28.38 36 26 36 C26.60991356 44.05334846 27.66986941 49.38887039 32.98046875 55.515625 C41.26269712 65.70420767 44.33355277 74.94229581 43 88 C40.98103268 85.35935652 39.09054175 82.68355845 37.3125 79.875 C36.65701172 78.85019531 36.65701172 78.85019531 35.98828125 77.8046875 C35 76 35 76 35 74 C34.34 74 33.68 74 33 74 C32.67 72.35 32.34 70.7 32 69 C31.34 69 30.68 69 30 69 C29.63261719 68.17822266 29.63261719 68.17822266 29.2578125 67.33984375 C26.25503727 60.97188938 22.63051601 55.25936215 18.56689453 49.53100586 C15.54900903 45.17929669 13.70166747 41.02044751 12 36 C11.05084362 33.38981995 10.32399966 31.39443437 8.5625 29.25 C2.98994596 21.22552219 1.99971774 9.40983931 0 0 Z " fill="#A349A4" transform="translate(93,213)"/>
<path d="M0 0 C0.99 0.495 0.99 0.495 2 1 C2 1.66 2 2.32 2 3 C2.89912109 3.38865234 2.89912109 3.38865234 3.81640625 3.78515625 C6.16794302 5.0934352 7.29915342 6.32716438 8.9375 8.4375 C11.3439578 11.3828084 13.60711325 13.20376584 17 15 C17 15.33 17 15.66 17 16 C16.39671875 16.12117188 15.7934375 16.24234375 15.171875 16.3671875 C14.37265625 16.53476563 13.5734375 16.70234375 12.75 16.875 C11.56664062 17.11863281 11.56664062 17.11863281 10.359375 17.3671875 C7.97832244 18.00581418 6.075438 18.66578986 4 20 C3.18415432 23.05908413 3.18415432 23.05908413 3 26 C0.65360565 23.65360565 0.05163525 22.03170551 -0.11352539 18.73168945 C-0.10828857 17.86761475 -0.10305176 17.00354004 -0.09765625 16.11328125 C-0.09443359 15.17548828 -0.09121094 14.23769531 -0.08789062 13.27148438 C-0.07532227 11.80678711 -0.07532227 11.80678711 -0.0625 10.3125 C-0.05798828 9.32443359 -0.05347656 8.33636719 -0.04882812 7.31835938 C-0.03704303 4.87884526 -0.02059011 2.43945311 0 0 Z " fill="#A349A4" transform="translate(371,190)"/>
<path d="M0 0 C4.75 1.875 4.75 1.875 7 3 C6.67 6.96 6.34 10.92 6 15 C-2.61538462 10.69230769 -2.61538462 10.69230769 -4.5625 7.1875 C-4.706875 6.465625 -4.85125 5.74375 -5 5 C-3.35 3.35 -1.7 1.7 0 0 Z " fill="#A349A4" transform="translate(225,231)"/>
<path d="M0 0 C4.95 0 9.9 0 15 0 C15.33 1.32 15.66 2.64 16 4 C9.86946489 4.32712342 5.37330889 4.39366878 0 1 C0 0.67 0 0.34 0 0 Z " fill="#A349A4" transform="translate(386,214)"/>
</svg>
